<?xml version="1.0" encoding="iso-8859-1"?>
<!-- Generator: Adobe Illustrator 25.4.1, SVG Export Plug-In . SVG Version: 6.00 Build 0)  -->
<svg version="1.1" id="Layer_1" xmlns="http://www.w3.org/2000/svg" xmlns:xlink="http://www.w3.org/1999/xlink" x="0px" y="0px"
	 viewBox="0 0 48 48" style="enable-background:new 0 0 48 48;" xml:space="preserve">
<g>
	<linearGradient id="SVGID_1_" gradientUnits="userSpaceOnUse" x1="4.9999" y1="11.0001" x2="18.1248" y2="11.0001">
		<stop  offset="0.143" style="stop-color:#073042"/>
		<stop  offset="1" style="stop-color:#073042"/>
	</linearGradient>
	<path style="fill:url(#SVGID_1_);" d="M18.125,7L18,15H5c0,0,0-2.567,0-4.5S6.567,7,8.5,7S18.125,7,18.125,7z"/>
	<g>
		
			<linearGradient id="SVGID_00000112615124537761580510000016087595979335035801_" gradientUnits="userSpaceOnUse" x1="21.4171" y1="0.2052" x2="24.3853" y2="17.0391">
			<stop  offset="0" style="stop-color:#3DDC84"/>
			<stop  offset="0.7944" style="stop-color:#37C777"/>
		</linearGradient>
		<path style="fill:url(#SVGID_00000112615124537761580510000016087595979335035801_);" d="M30.009,5.627l1.85-3.117
			c0.282-0.475,0.125-1.089-0.349-1.371c-0.475-0.283-1.088-0.125-1.371,0.349l-1.945,3.276C26.889,4.276,25.478,4,24,4
			s-2.889,0.276-4.195,0.765L17.86,1.489c-0.282-0.474-0.895-0.632-1.371-0.349c-0.475,0.282-0.631,0.896-0.349,1.371l1.85,3.117
			c-3.301,1.92-5.608,5.362-5.94,9.373H35.95C35.618,10.989,33.311,7.547,30.009,5.627z"/>
		
			<linearGradient id="SVGID_00000085928683165930315530000014856855369377532836_" gradientUnits="userSpaceOnUse" x1="24" y1="0.9996" x2="24" y2="15">
			<stop  offset="0.7722" style="stop-color:#000000;stop-opacity:0"/>
			<stop  offset="0.9404" style="stop-color:#000000;stop-opacity:0.15"/>
		</linearGradient>
		<path style="fill:url(#SVGID_00000085928683165930315530000014856855369377532836_);" d="M30.009,5.627l1.85-3.117
			c0.282-0.475,0.125-1.089-0.349-1.371c-0.475-0.283-1.088-0.125-1.371,0.349l-1.945,3.276C26.889,4.276,25.478,4,24,4
			s-2.889,0.276-4.195,0.765L17.86,1.489c-0.282-0.474-0.895-0.632-1.371-0.349c-0.475,0.282-0.631,0.896-0.349,1.371l1.85,3.117
			c-3.301,1.92-5.608,5.362-5.94,9.373H35.95C35.618,10.989,33.311,7.547,30.009,5.627z"/>
		<g>
			<path style="opacity:0.05;" d="M19,12c-1.103,0-2-0.897-2-2s0.897-2,2-2s2,0.897,2,2S20.103,12,19,12z M19,9.999V10V9.999z"/>
			<path style="opacity:0.05;" d="M19,11.5c-0.827,0-1.5-0.673-1.5-1.5s0.673-1.5,1.5-1.5s1.5,0.673,1.5,1.5S19.827,11.5,19,11.5z"
				/>
			<circle style="fill:#FFFFFF;" cx="19" cy="10" r="1"/>
		</g>
		<g>
			<path style="opacity:0.05;" d="M29,12c-1.103,0-2-0.897-2-2s0.897-2,2-2s2,0.897,2,2S30.103,12,29,12z M29,9.999V10V9.999z"/>
			<path style="opacity:0.05;" d="M29,11.5c-0.827,0-1.5-0.673-1.5-1.5s0.673-1.5,1.5-1.5s1.5,0.673,1.5,1.5S29.827,11.5,29,11.5z"
				/>
			<circle style="fill:#FFFFFF;" cx="29" cy="10" r="1"/>
		</g>
	</g>
	
		<linearGradient id="SVGID_00000062909739922661737470000008954369477713966209_" gradientUnits="userSpaceOnUse" x1="20.5199" y1="7.7635" x2="26.8815" y2="43.842">
		<stop  offset="0.1553" style="stop-color:#4F8FFF"/>
		<stop  offset="0.9247" style="stop-color:#3F73CC"/>
	</linearGradient>
	<path style="fill:url(#SVGID_00000062909739922661737470000008954369477713966209_);" d="M39.5,14c-0.494,0-30.14,0-31,0
		C6.567,14,5,12.433,5,10.5c0,0.001,0,25.067,0,27S6.567,41,8.5,41C9.36,41,43,41,43,41s0-21.567,0-23.5S41.433,14,39.5,14z"/>
	
		<linearGradient id="SVGID_00000119103256845492045000000014620521509308837252_" gradientUnits="userSpaceOnUse" x1="38.092" y1="18.3654" x2="43.0406" y2="46.4303">
		<stop  offset="0.143" style="stop-color:#073042"/>
		<stop  offset="1" style="stop-color:#073042"/>
	</linearGradient>
	<path style="fill:url(#SVGID_00000119103256845492045000000014620521509308837252_);" d="M39.5,21h-1c-0.276,0-0.5,0.224-0.5,0.5
		v25c0,0.276,0.224,0.5,0.5,0.5h1c1.933,0,3.5-1.567,3.5-3.5v-26C43,19.433,41.433,21,39.5,21z"/>
	<g>
		<path style="opacity:0.05;" d="M15.119,41h5.526l2.26-4.802c0.205-0.435,0.614-0.695,1.095-0.695s0.89,0.26,1.095,0.695L27.354,41
			h5.527l-5.936-12.612C27.926,27.535,28.5,26.297,28.5,25c0-1.909-1.215-3.596-3-4.227V19c0-0.827-0.673-1.5-1.5-1.5
			s-1.5,0.673-1.5,1.5v1.773c-1.785,0.631-3,2.318-3,4.227c0,1.297,0.574,2.535,1.555,3.388L15.119,41z M24,23.5
			c0.827,0,1.5,0.673,1.5,1.5s-0.673,1.5-1.5,1.5s-1.5-0.673-1.5-1.5S23.173,23.5,24,23.5z"/>
		<path style="opacity:0.05;" d="M14.567,41h6.631l2.16-4.589c0.173-0.368,0.507-0.408,0.643-0.408s0.469,0.04,0.643,0.408
			L26.802,41h6.631l-5.881-12.497C28.47,27.573,29,26.314,29,25c0-2.001-1.201-3.782-3-4.567V19c0-1.103-0.897-2-2-2s-2,0.897-2,2
			v1.433c-1.799,0.785-3,2.565-3,4.567c0,1.314,0.53,2.573,1.448,3.503L14.567,41z M24,24c0.551,0,1,0.449,1,1s-0.449,1-1,1
			s-1-0.449-1-1S23.449,24,24,24z"/>
		
			<linearGradient id="SVGID_00000029041599989077831510000003471033469092425915_" gradientUnits="userSpaceOnUse" x1="19.3822" y1="18.7987" x2="24.5907" y2="48.3378">
			<stop  offset="0" style="stop-color:#073042"/>
			<stop  offset="0.857" style="stop-color:#073042"/>
		</linearGradient>
		<path style="fill:url(#SVGID_00000029041599989077831510000003471033469092425915_);" d="M33.768,44.061l-7.444-15.819
			C27.335,27.515,28,26.337,28,25c0-1.858-1.28-3.411-3-3.858V19c0-0.552-0.448-1-1-1s-1,0.448-1,1v2.142c-1.72,0.447-3,2-3,3.858
			c0,1.337,0.665,2.515,1.676,3.242l-7.44,15.811c-0.424,0.901-0.201,2.025,0.62,2.588c1.047,0.718,2.437,0.309,2.954-0.79
			l4.643-9.866c0.616-1.309,2.479-1.309,3.095,0l4.643,9.866C30.531,46.576,31.25,47,32.001,47c0.411,0,0.832-0.128,1.203-0.402
			C33.982,46.024,34.18,44.936,33.768,44.061z M24,23c1.103,0,2,0.897,2,2s-0.897,2-2,2s-2-0.897-2-2S22.897,23,24,23z"/>
	</g>
</g>
</svg>