<?xml version="1.0" standalone="no"?>
<!DOCTYPE svg PUBLIC "-//W3C//DTD SVG 20010904//EN"
 "http://www.w3.org/TR/2001/REC-SVG-20010904/DTD/svg10.dtd">
<svg version="1.0" xmlns="http://www.w3.org/2000/svg"
 width="512.000000pt" height="512.000000pt" viewBox="0 0 512.000000 512.000000"
 preserveAspectRatio="xMidYMid meet">

<g transform="translate(0.000000,512.000000) scale(0.100000,-0.100000)"
fill="#FF005A" stroke="none">
<path d="M2278 4885 c-1065 -129 -1902 -964 -2043 -2038 -17 -136 -20 -431 -5
-557 63 -522 285 -987 650 -1364 899 -927 2378 -952 3304 -56 284 276 468 564
595 934 127 370 158 792 86 1179 -189 1011 -1014 1783 -2032 1902 -153 18
-407 18 -555 0z m-1272 -2165 c67 -179 125 -325 129 -325 5 0 35 72 68 160 71
193 138 372 164 440 l19 50 127 3 127 3 -2 -488 -3 -488 -104 -3 -103 -3 3
295 c2 162 3 294 2 293 -3 -4 -73 -185 -138 -357 -36 -96 -71 -187 -77 -202
-10 -27 -13 -28 -83 -28 -60 0 -74 3 -80 18 -4 9 -52 134 -107 277 -55 143
-104 269 -108 280 -5 11 -6 -114 -3 -277 l6 -298 -106 0 -107 0 0 490 0 491
127 -3 127 -3 122 -325z m935 258 c12 -40 60 -192 106 -338 l86 -264 42 124
c60 178 141 425 160 493 l16 57 209 0 209 0 11 -42 c6 -24 31 -101 55 -173 23
-71 66 -204 95 -294 34 -106 55 -160 60 -150 4 8 54 159 111 337 l104 322 113
0 c105 0 114 -1 107 -17 -10 -27 -92 -255 -130 -363 -18 -52 -61 -171 -95
-265 -34 -93 -75 -206 -91 -250 l-28 -80 -95 -3 -94 -3 -16 43 c-28 78 -87
241 -126 353 -37 104 -147 410 -175 485 l-13 35 -11 -27 c-6 -16 -16 -40 -22
-55 -6 -16 -33 -89 -59 -163 -27 -74 -72 -200 -100 -280 -29 -80 -72 -199 -95
-265 l-43 -120 -94 -3 -94 -3 -44 118 c-23 65 -60 165 -80 223 -21 58 -68 188
-105 290 -37 102 -80 222 -95 268 l-29 82 114 0 114 0 22 -72z m1914 -256 c67
-178 125 -324 129 -325 4 -1 33 63 62 143 30 80 72 192 94 250 22 58 52 139
67 180 l28 75 128 3 127 3 -2 -488 -3 -488 -104 -3 -104 -3 6 296 c3 163 3
295 1 293 -3 -4 -55 -138 -175 -452 -27 -71 -49 -131 -49 -133 0 -2 -34 -3
-75 -3 -63 0 -77 3 -82 18 -8 23 -104 277 -168 441 l-52 134 5 -297 5 -297
-104 3 -104 3 -3 488 -2 488 127 -3 127 -3 121 -323z"/>
</g>
</svg>
